<svg xmlns="http://www.w3.org/2000/svg" version="1.1" xmlns:xlink="http://www.w3.org/1999/xlink" xmlns:svgjs="http://svgjs.dev/svgjs" width="2000" height="1250" viewBox="0 0 2000 1250"><g transform="matrix(1,0,0,1,0,0)"><svg viewBox="0 0 512 320" data-background-color="#a437db" preserveAspectRatio="xMidYMid meet" height="1250" width="2000" xmlns="http://www.w3.org/2000/svg" xmlns:xlink="http://www.w3.org/1999/xlink"><g id="tight-bounds" transform="matrix(1,0,0,1,0,0)"><svg viewBox="0 0 512 320" height="320" width="512"><g><svg></svg></g><g><svg viewBox="0 0 512 320" height="320" width="512"><g><path xmlns="http://www.w3.org/2000/svg" d="M96 160c0-88.366 71.634-160 160-160 88.366 0 160 71.634 160 160 0 88.366-71.634 160-160 160-88.366 0-160-71.634-160-160z" fill="#bb84e8" fill-rule="nonzero" stroke="none" stroke-width="1" stroke-linecap="butt" stroke-linejoin="miter" stroke-miterlimit="10" stroke-dasharray="" stroke-dashoffset="0" font-family="none" font-weight="none" font-size="none" text-anchor="none" style="mix-blend-mode: normal" data-fill-palette-color="tertiary"></path></g><g transform="matrix(1,0,0,1,196.48,80)"><svg viewBox="0 0 119.04000000000002 160" height="160" width="119.04000000000002"><g><svg viewBox="0 0 119.04000000000002 160" height="160" width="119.04000000000002"><g><svg viewBox="0 0 119.04000000000002 160" height="160" width="119.04000000000002"><g><svg viewBox="0 0 119.04000000000002 160" height="160" width="119.04000000000002"><g id="textblocktransform"><svg viewBox="0 0 119.04000000000002 160" height="160" width="119.04000000000002" id="textblock"><g><svg viewBox="0 0 119.04000000000002 160" height="160" width="119.04000000000002"><g transform="matrix(1,0,0,1,0,0)"><svg width="119.04000000000002" viewBox="2.5 -25 18.600000381469727 25" height="160" data-palette-color="#a437db"><path d="M13.25-25Q17.05-25 19.07-22.03 21.1-19.05 21.1-14L21.1-14 21.1 0 16.75 0 16.75-13.45Q16.75-17.35 15.63-19.23 14.5-21.1 12.25-21.1L12.25-21.1Q10.6-21.1 9.2-20.18 7.8-19.25 6.85-17.6L6.85-17.6 6.85 0 2.5 0 2.5-24.5 6.2-24.5 6.5-21.45Q7.55-23.1 9.33-24.05 11.1-25 13.25-25L13.25-25Z" opacity="1" transform="matrix(1,0,0,1,0,0)" fill="#a437db" class="wordmark-text-0" data-fill-palette-color="quaternary" id="text-0"></path></svg></g></svg></g></svg></g></svg></g><g></g></svg></g></svg></g></svg></g></svg></g><defs></defs></svg><rect width="512" height="320" fill="none" stroke="none" visibility="hidden"></rect></g></svg></g></svg>